 <svg
    xmlns="http://www.w3.org/2000/svg"
    viewBox="0 0 250 28"
  
 
  >
   <path d="M122.2 1.5c-4.1 0-6.9 1-9.4 3.2-2.5 2.3-4 5.8-4 9.4s1.5 7 4 9.3c2.4 2.2 5.3 3.2 9.2 3.2s6.8-1 9.1-3.2c2.5-2.3 3.9-5.8 4.1-9.4 0-3.6-1.5-7-4-9.3-2.3-2.1-5.3-3.2-9-3.2zm-.3 21.5c-5.2 0-8.8-3.6-8.8-8.9s3.6-8.9 8.7-8.9c5.4 0 9 3.5 8.9 9 0 5.2-3.5 8.8-8.8 8.8zM14.6 15.7 6.2 2H1v24h3.6V6.9l9.7 16.4 9.5-16.4V26H28V2h-5.7zM57.3 23.5l-1.4-2.4-.1-.1-3.4-5.7c3.6-.7 5.3-2.8 5.3-6.3 0-2.7-1.1-5-2.9-5.9-1.5-.8-3.1-1.1-7.6-1.1H36.4v24h4.1V15.8h7.4l4.9 8 .1.1 1.3 2.1h4.7l-1.4-2.2c-.1-.1-.1-.2-.2-.3zM40.6 12.2V5.5H49c2.2 0 3 .1 3.9.7.8.5 1.3 1.5 1.3 2.7s-.5 2.2-1.3 2.7c-.9.5-1.9.6-3.9.6h-8.4zM99.7 3.2c-1.4-.9-3-1.2-6.3-1.2H81.6v24h4.1V15.8h7.6c3.4 0 4.8-.3 6.3-1.2 1.8-1.1 2.8-3.2 2.8-5.7.1-2.5-.9-4.6-2.7-5.7zm-6.1 9.1h-7.8V5.5h7.8c2.3 0 3.3.2 4.1.7.7.5 1.1 1.4 1.1 2.7 0 2.5-1.3 3.4-5.2 3.4zM163.3 23.6l-1.5-2.6-3.4-5.7c3.6-.7 5.3-2.8 5.3-6.3 0-2.7-1.1-5-2.9-5.9-1.5-.8-3.1-1.1-7.6-1.1h-10.8v24h4.1V15.9h7.4l4.9 8 .1.1 1.3 2h4.7l-1.4-2.1c-.1-.1-.1-.2-.2-.3zm-16.8-11.3V5.6h8.4c2.2 0 3 .1 3.9.7.8.5 1.3 1.5 1.3 2.7s-.5 2.2-1.3 2.7-1.8.6-3.9.6h-8.4zM170 2v3.5h9.2V26h4.1V5.5h9.1V2h-2.1zM204 22.5v-7h10.5V12H204V5.5h15.2V2h-19.4v24h20.4v-3.5h-2.1zM248.6 23.8c-.1-.1-.1-.2-.2-.3l-1.4-2.4-.1-.1-3.4-5.7c3.6-.7 5.3-2.8 5.3-6.3 0-2.7-1.1-5-2.9-5.9-1.5-.8-3.1-1.1-7.6-1.1h-10.8v24h4.1V15.8h7.4l4.9 8 .1.1 1.3 2.1h4.7l-1.4-2.2zm-16.9-11.6V5.5h8.4c2.2 0 3 .1 3.9.7.8.5 1.3 1.5 1.3 2.7s-.5 2.2-1.3 2.7c-.9.5-1.8.6-3.9.6h-8.4z"/>
   </svg>